Coordinates
version=1
nRows=19
nColumns=24
inDegrees=yes

Units are S.I. units (second, meters, Newtons, ...)
Angles are in degrees.

endheader
time	pelvis_tilt	pelvis_list	pelvis_rotation	pelvis_tx	pelvis_ty	pelvis_tz	hip_flexion_r	hip_adduction_r	hip_rotation_r	knee_angle_r	ankle_angle_r	subtalar_angle_r	mtp_angle_r	hip_flexion_l	hip_adduction_l	hip_rotation_l	knee_angle_l	ankle_angle_l	subtalar_angle_l	mtp_angle_l	lumbar_extension	lumbar_bending	lumbar_rotation
      3.72500000	     11.50962732	      1.52275613	     13.05814218	     -0.92067140	      0.91263461	     -0.27392867	      8.90476980	     -2.94373066	     -8.79156038	     -2.35405991	     13.12686822	     -1.10589249	      0.00000000	    -30.40033365	     -2.05868455	     11.89958516	    -13.49906310	     19.75969917	     10.82833285	      0.00000000	    -29.36862116	      4.24662363	    -14.65088427
      3.73000000	     11.54798115	      1.04435323	     13.23362503	     -0.91273385	      0.91213394	     -0.27375814	      8.99998857	     -2.39965144	     -8.75857892	     -2.97122246	     13.04708037	     -1.45646258	      0.00000000	    -30.30442059	     -2.71328325	     11.45965433	    -14.56602432	     19.49877738	     11.67163851	      0.00000000	    -29.28183909	      4.86425536	    -14.61056308
      3.73500000	     11.67910785	      0.51822780	     13.32831144	     -0.90470474	      0.91175454	     -0.27342920	      9.01672854	     -1.75705220	     -8.65758836	     -3.66023589	     12.97815364	     -1.86196822	      0.00000000	    -30.28979181	     -3.40455825	     10.86006681	    -15.65336799	     19.13105358	     12.51477884	      0.00000000	    -29.28781310	      5.50428168	    -14.46399699
      3.74000000	     11.78148387	     -0.03491676	     13.44843342	     -0.89670329	      0.91139560	     -0.27313077	      9.08372034	     -1.09866378	     -8.56877423	     -4.45379447	     12.93323827	     -2.19771913	      0.00000000	    -30.19290040	     -4.12287248	     10.34255330	    -16.81179892	     18.74931916	     13.34973880	      0.00000000	    -29.26164981	      6.17869543	    -14.32576864
      3.74500000	     11.91895191	     -0.62715174	     13.51694524	     -0.88859296	      0.91110779	     -0.27269765	      9.11388057	     -0.36409982	     -8.44258286	     -5.27708032	     12.88727634	     -2.62198326	      0.00000000	    -30.10542590	     -4.87123655	      9.70690672	    -18.01549353	     18.26319563	     14.19043517	      0.00000000	    -29.25572508	      6.86741802	    -14.13424934
      3.75000000	     12.00541508	     -1.22617060	     13.61972687	     -0.88058270	      0.91081231	     -0.27233022	      9.21146479	      0.35354297	     -8.36388513	     -6.17985658	     12.85545411	     -2.92222779	      0.00000000	    -29.89246492	     -5.62094839	      9.17946237	    -19.32903991	     17.79850536	     15.00420375	      0.00000000	    -29.20611758	      7.57384347	    -13.97158290
      3.75500000	     12.08439204	     -1.85216888	     13.69511605	     -0.87241243	      0.91056828	     -0.27185992	      9.30521450	      1.11910513	     -8.26844145	     -7.09995013	     12.82727983	     -3.28977580	      0.00000000	    -29.65512323	     -6.39593156	      8.59154912	    -20.65448488	     17.18212836	     15.81471202	      0.00000000	    -29.12033013	      8.27698636	    -13.79481304
      3.76000000	     12.15982129	     -2.47981034	     13.76166663	     -0.86427730	      0.91035926	     -0.27133808	      9.40205253	      1.89443505	     -8.15427556	     -8.05035649	     12.80417387	     -3.65031392	      0.00000000	    -29.36462882	     -7.16865938	      8.02337594	    -22.05099499	     16.52289408	     16.57598137	      0.00000000	    -29.03886750	      8.96894555	    -13.59437970
      3.76500000	     12.21611455	     -3.12512197	     13.80545180	     -0.85608086	      0.91016682	     -0.27075715	      9.50821794	      2.69718403	     -8.02518182	     -9.00574335	     12.79176727	     -4.02356339	      0.00000000	    -29.02025420	     -7.94869248	      7.45092521	    -23.49138777	     15.80000610	     17.31191296	      0.00000000	    -28.92604805	      9.66339583	    -13.38652429
      3.77000000	     12.25708377	     -3.76627530	     13.83244667	     -0.84789675	      0.90998561	     -0.27012601	      9.62786928	      3.50291055	     -7.86341333	     -9.98657465	     12.80845083	     -4.42001348	      0.00000000	    -28.62287680	     -8.71485955	      6.90508992	    -24.97773231	     15.05109563	     17.96964443	      0.00000000	    -28.79765130	     10.33907036	    -13.18109396
      3.77500000	     12.27108463	     -4.39439036	     13.86084261	     -0.83972849	      0.90984673	     -0.26946914	      9.74069425	      4.29467725	     -7.73508652	    -10.91855129	     12.81745295	     -4.75574685	      0.00000000	    -28.14160935	     -9.46555895	      6.40588885	    -26.53792042	     14.21125453	     18.56315985	      0.00000000	    -28.64951319	     10.98919633	    -12.97860639
      3.78000000	     12.26099901	     -5.01753398	     13.89060784	     -0.83155886	      0.90971705	     -0.26879618	      9.86639664	      5.08211944	     -7.60212008	    -11.85270519	     12.85238307	     -5.11026386	      0.00000000	    -27.59599030	    -10.21048615	      5.93639771	    -28.13254690	     13.36951976	     19.07265944	      0.00000000	    -28.46530855	     11.62236589	    -12.79632916
      3.78500000	     12.23115647	     -5.62059495	     13.92034471	     -0.82341655	      0.90962535	     -0.26810961	      9.98020882	      5.84968580	     -7.48082426	    -12.74061082	     12.90150048	     -5.42875489	      0.00000000	    -26.98299880	    -10.93053969	      5.52903216	    -29.77441482	     12.47589157	     19.48670303	      0.00000000	    -28.26480047	     12.23040789	    -12.62582330
      3.79000000	     12.16479078	     -6.20419763	     13.94723521	     -0.81532069	      0.90954106	     -0.26737418	     10.10301934	      6.59705340	     -7.37357270	    -13.58102537	     12.97219302	     -5.75981134	      0.00000000	    -26.27843837	    -11.62846936	      5.15423776	    -31.47086109	     11.58455767	     19.80810007	      0.00000000	    -28.03242967	     12.79954483	    -12.48010755
      3.79500000	     12.07752800	     -6.77047511	     13.98009928	     -0.80724725	      0.90949042	     -0.26666545	     10.21712953	      7.32226369	     -7.27278907	    -14.37733319	     13.06781561	     -6.05279159	      0.00000000	    -25.51049269	    -12.30165222	      4.85809691	    -33.19083320	     10.67922763	     20.02206243	      0.00000000	    -27.77471958	     13.35441775	    -12.35407147
      3.80000000	     11.90524923	     -7.28678676	     14.02037426	     -0.79929010	      0.90942878	     -0.26592580	     10.39169616	      7.97887136	     -7.15946022	    -15.13541309	     13.17228473	     -6.35177822	      0.00000000	    -24.58800570	    -12.91114208	      4.67441137	    -34.96369995	      9.77305487	     20.19837623	      0.00000000	    -27.43928420	     13.83857616	    -12.27925068
      3.80500000	     11.79679564	     -7.80882492	     14.06640918	     -0.79128993	      0.90946231	     -0.26528786	     10.45149946	      8.65315961	     -7.09936707	    -15.80172676	     13.33968953	     -6.56930371	      0.00000000	    -23.71310532	    -13.52732117	      4.49439897	    -36.72316337	      8.89760564	     20.14941085	      0.00000000	    -27.15692228	     14.35902490	    -12.18854276
      3.81000000	     11.65599455	     -8.30058863	     14.13390348	     -0.78336781	      0.90952571	     -0.26461065	     10.51486693	      9.29362213	     -7.04261361	    -16.41086398	     13.51391329	     -6.79403783	      0.00000000	    -22.75042140	    -14.11216859	      4.41931887	    -38.50101161	      8.05627855	     20.03852198	      0.00000000	    -26.84757596	     14.82780915	    -12.14376203
      3.81500000	     11.52574693	     -8.76213019	     14.20253133	     -0.77549533	      0.90965136	     -0.26399596	     10.52502054	      9.90331994	     -7.00166563	    -16.94679443	     13.72515064	     -6.98630701	      0.00000000	    -21.76639831	    -14.65478106	      4.38589000	    -40.27743114	      7.27138767	     19.78421631	      0.00000000	    -26.55260980	     15.28140242	    -12.10733207
